<svg width="52" height="52" viewBox="0 0 52 52" fill="none" xmlns="http://www.w3.org/2000/svg">
<path d="M5.6875 44.6875C5.6875 45.5863 6.41367 46.3125 7.3125 46.3125H44.6875C45.5863 46.3125 46.3125 45.5863 46.3125 44.6875V23.3594H5.6875V44.6875ZM44.6875 9.34375H36.1562V6.09375C36.1562 5.87031 35.9734 5.6875 35.75 5.6875H32.9062C32.6828 5.6875 32.5 5.87031 32.5 6.09375V9.34375H19.5V6.09375C19.5 5.87031 19.3172 5.6875 19.0938 5.6875H16.25C16.0266 5.6875 15.8438 5.87031 15.8438 6.09375V9.34375H7.3125C6.41367 9.34375 5.6875 10.0699 5.6875 10.9688V19.9062H46.3125V10.9688C46.3125 10.0699 45.5863 9.34375 44.6875 9.34375Z" fill="#EDF7DA"/>
</svg>
