<svg width="52" height="52" viewBox="0 0 52 52" fill="none" xmlns="http://www.w3.org/2000/svg">
<path d="M21.6667 26C21.6667 27.1492 22.1232 28.2514 22.9359 29.0641C23.7485 29.8767 24.8507 30.3333 26 30.3333C27.1493 30.3333 28.2515 29.8767 29.0641 29.0641C29.8768 28.2514 30.3334 27.1492 30.3334 26C30.3334 24.8507 29.8768 23.7485 29.0641 22.9358C28.2515 22.1232 27.1493 21.6666 26 21.6666C24.8507 21.6666 23.7485 22.1232 22.9359 22.9358C22.1232 23.7485 21.6667 24.8507 21.6667 26ZM21.6667 13C21.6667 14.1492 22.1232 15.2514 22.9359 16.0641C23.7485 16.8767 24.8507 17.3333 26 17.3333C27.1493 17.3333 28.2515 16.8767 29.0641 16.0641C29.8768 15.2514 30.3334 14.1492 30.3334 13C30.3334 11.8507 29.8768 10.7485 29.0641 9.93583C28.2515 9.12317 27.1493 8.66663 26 8.66663C24.8507 8.66663 23.7485 9.12317 22.9359 9.93583C22.1232 10.7485 21.6667 11.8507 21.6667 13ZM21.6667 39C21.6667 40.1492 22.1232 41.2514 22.9359 42.0641C23.7485 42.8767 24.8507 43.3333 26 43.3333C27.1493 43.3333 28.2515 42.8767 29.0641 42.0641C29.8768 41.2514 30.3334 40.1492 30.3334 39C30.3334 37.8507 29.8768 36.7485 29.0641 35.9358C28.2515 35.1232 27.1493 34.6666 26 34.6666C24.8507 34.6666 23.7485 35.1232 22.9359 35.9358C22.1232 36.7485 21.6667 37.8507 21.6667 39Z" fill="#324016"/>
</svg>
