<svg width="48" height="46" viewBox="0 0 48 46" fill="none" xmlns="http://www.w3.org/2000/svg">
<path d="M42 2.875C42.7957 2.875 43.5587 3.1779 44.1213 3.71707C44.6839 4.25624 45 4.9875 45 5.75V40.25C45 41.0125 44.6839 41.7438 44.1213 42.2829C43.5587 42.8221 42.7957 43.125 42 43.125H6C5.20435 43.125 4.44129 42.8221 3.87868 42.2829C3.31607 41.7438 3 41.0125 3 40.25V5.75C3 4.9875 3.31607 4.25624 3.87868 3.71707C4.44129 3.1779 5.20435 2.875 6 2.875H42ZM6 0C4.4087 0 2.88258 0.605802 1.75736 1.68414C0.632141 2.76247 0 4.22501 0 5.75L0 40.25C0 41.775 0.632141 43.2375 1.75736 44.3159C2.88258 45.3942 4.4087 46 6 46H42C43.5913 46 45.1174 45.3942 46.2426 44.3159C47.3679 43.2375 48 41.775 48 40.25V5.75C48 4.22501 47.3679 2.76247 46.2426 1.68414C45.1174 0.605802 43.5913 0 42 0L6 0Z" fill="#EDF7DA"/>
<path d="M24 11.5C24.3978 11.5 24.7794 11.6515 25.0607 11.921C25.342 12.1906 25.5 12.5563 25.5 12.9375V21.5625H34.5C34.8978 21.5625 35.2794 21.714 35.5607 21.9835C35.842 22.2531 36 22.6188 36 23C36 23.3812 35.842 23.7469 35.5607 24.0165C35.2794 24.2861 34.8978 24.4375 34.5 24.4375H25.5V33.0625C25.5 33.4437 25.342 33.8094 25.0607 34.079C24.7794 34.3486 24.3978 34.5 24 34.5C23.6022 34.5 23.2206 34.3486 22.9393 34.079C22.658 33.8094 22.5 33.4437 22.5 33.0625V24.4375H13.5C13.1022 24.4375 12.7206 24.2861 12.4393 24.0165C12.158 23.7469 12 23.3812 12 23C12 22.6188 12.158 22.2531 12.4393 21.9835C12.7206 21.714 13.1022 21.5625 13.5 21.5625H22.5V12.9375C22.5 12.5563 22.658 12.1906 22.9393 11.921C23.2206 11.6515 23.6022 11.5 24 11.5Z" fill="#EDF7DA"/>
</svg>
