<svg width="70" height="70" viewBox="0 0 70 70" fill="none" xmlns="http://www.w3.org/2000/svg">
<rect width="70" height="70" fill="white"/>
<path d="M35 48.125C40.0859 48.125 43.6406 45.7324 45.7188 43.4902C46.9355 42.1641 49.0137 42.0684 50.3535 43.2988C51.6797 44.5293 51.7617 46.6074 50.5312 47.9336C47.5371 51.2012 42.3418 54.6875 35 54.6875C27.6582 54.6875 22.4629 51.2012 19.4688 47.9336C18.2383 46.6074 18.1973 44.5293 19.6465 43.2988C20.9863 42.0684 23.0645 42.1641 24.2812 43.4902C26.3594 45.7324 29.9141 48.125 35 48.125ZM28.4922 28.4375C28.4922 30.8574 26.5234 32.8125 24.1172 32.8125C21.6973 32.8125 19.7422 30.8574 19.7422 28.4375C19.7422 26.0176 21.6973 24.0625 24.1172 24.0625C26.5234 24.0625 28.4922 26.0176 28.4922 28.4375ZM38.541 31.5273C37.4473 30.4883 37.3926 28.7656 38.418 27.6582C40.4141 25.5391 43.2441 24.6094 45.8828 24.6094C48.4121 24.6094 51.3652 25.5391 53.3477 27.6582C54.3867 28.7656 54.332 30.4883 53.2246 31.5273C52.1172 32.5527 50.3945 32.498 49.3555 31.4043C48.6172 30.5977 47.3457 30.0781 45.8828 30.0781C44.3105 30.0781 43.1621 30.5977 42.4102 31.4043C41.3848 32.498 39.6484 32.5527 38.541 31.5273ZM70 35C70 54.332 54.332 70 35 70C15.668 70 0 54.332 0 35C0 15.668 15.668 0 35 0C54.332 0 70 15.668 70 35ZM35 6.5625C19.291 6.5625 6.5625 19.291 6.5625 35C6.5625 50.709 19.291 63.4375 35 63.4375C50.709 63.4375 63.4375 50.709 63.4375 35C63.4375 19.291 50.709 6.5625 35 6.5625Z" fill="#567C05"/>
</svg>
